HIERARCHY
ROOT Hips
{
	OFFSET 0.000000 0.000000 0.000000
	CHANNELS 6 Xposition Yposition Zposition Zrotation Yrotation Xrotation 
	JOINT LHipJoint
	{
		OFFSET 0.000000 0.000000 0.000000
		CHANNELS 3 Zrotation Yrotation Xrotation
		JOINT LeftUpLeg
		{
			OFFSET 1.363060 -1.794630 0.839290
			CHANNELS 3 Zrotation Yrotation Xrotation
			JOINT LeftLeg
			{
				OFFSET 2.448110 -6.726130 0.000000
				CHANNELS 3 Zrotation Yrotation Xrotation
				JOINT LeftFoot
				{
					OFFSET 2.562200 -7.039590 0.000000
					CHANNELS 3 Zrotation Yrotation Xrotation
					JOINT LeftToeBase
					{
						OFFSET 0.157640 -0.433110 2.322550
						CHANNELS 3 Zrotation Yrotation Xrotation
						End Site
						{
							OFFSET 0.000000 0.000000 0.000000
						}
					}
				}
			}
		}
	}
	JOINT RHipJoint
	{
		OFFSET 0.000000 0.000000 0.000000
		CHANNELS 3 Zrotation Yrotation Xrotation
		JOINT RightUpLeg
		{
			OFFSET -1.305520 -1.794630 0.839290
			CHANNELS 3 Zrotation Yrotation Xrotation
			JOINT RightLeg
			{
				OFFSET -2.542530 -6.985550 0.000000
				CHANNELS 3 Zrotation Yrotation Xrotation
				JOINT RightFoot
				{
					OFFSET -2.568260 -7.056230 0.000000
					CHANNELS 3 Zrotation Yrotation Xrotation
					JOINT RightToeBase
					{
						OFFSET -0.164730 -0.452590 2.363150
						CHANNELS 3 Zrotation Yrotation Xrotation
						End Site
						{
							OFFSET 0.000000 0.000000 0.000000
						}
					}
				}
			}
		}
	}
}
MOTION
Frames: 19
Frame Time: 0.008333
-4.670410 16.961659 -2.100533 58.048764 82.212341 78.407422 -11.486173 2.225846 -3.594415 -8.484579 7.477659 -12.740585 -1.646936 1.956615 31.398404 0.617395 3.030342 4.302910 0.542600 0.000000 -79.295100 8.459488 1.368190 -0.324292 8.935735 -0.785273 -40.352509 2.036634 0.461929 9.077380 -2.500357 -12.021080 1.594898 176.549600 0.000000 -2.443900
-4.567633 16.982632 -2.051212 56.792438 82.402394 77.123728 -11.697300 2.152774 -3.681095 -7.739045 7.861919 -13.483288 -1.482693 2.106723 33.005543 0.620688 2.580127 6.044258 0.491500 0.000000 -80.833500 8.292635 1.276525 -0.441013 9.452284 -0.546147 -40.244107 2.083102 0.365791 10.169618 -2.513974 -11.890812 0.837699 176.757200 -0.000000 -3.638100
-4.468304 17.005582 -1.997231 55.637519 82.558826 75.940788 -11.873638 2.070455 -3.770729 -7.041338 8.185391 -14.260369 -1.318276 2.252835 34.643798 0.638000 2.073934 7.944453 0.395700 0.000000 -81.749800 8.151994 1.204294 -0.553422 9.915662 -0.306048 -39.970627 2.115891 0.309511 10.956066 -2.554959 -11.881780 0.032326 176.946600 -0.000000 -4.622600
-4.372037 17.029129 -1.938232 54.832698 82.668425 75.110599 -12.011533 1.980841 -3.852510 -6.424779 8.410218 -15.060754 -1.157446 2.389087 36.291470 0.670291 1.530290 9.939474 0.251300 -0.000000 -81.913999 8.041967 1.151871 -0.661341 10.302294 -0.100593 -39.576148 2.135025 0.284555 11.480457 -2.615132 -11.961129 -0.772192 177.119000 -0.000000 -5.407201
-4.278173 17.052236 -1.874645 54.546732 82.733476 74.806099 -12.116437 1.883313 -3.918534 -5.895948 8.519371 -15.881955 -1.003220 2.511540 37.935237 0.715845 0.964518 11.951478 0.059099 -0.000000 -81.250200 7.958473 1.114284 -0.762109 10.606338 0.057685 -39.094406 2.141571 0.284683 11.773730 -2.687937 -12.110601 -1.521554 177.268600 0.000000 -6.003000
-4.186246 17.074055 -1.806942 54.906423 82.750202 75.157864 -12.190180 1.780155 -3.962459 -5.471005 8.499468 -16.720830 -0.858419 2.617507 39.560718 0.771676 0.412704 13.891315 -0.167000 0.000000 -79.731999 7.901686 1.089280 -0.854783 10.818511 0.149843 -38.573394 2.136726 0.300297 11.895348 -2.763846 -12.291999 -2.186139 177.397300 -0.000000 -6.441200
-4.095677 17.094087 -1.736049 55.904623 82.722137 76.163487 -12.237697 1.673002 -3.981837 -5.147542 8.355554 -17.579361 -0.724606 2.706953 41.159429 0.833553 -0.085833 15.671985 -0.404300 0.000000 -77.407699 7.868326 1.073160 -0.936745 10.942341 0.176827 -38.049790 2.122344 0.324476 11.893971 -2.836220 -12.480624 -2.746092 177.504200 0.000000 -6.757000
-4.005992 17.112202 -1.663086 57.428900 82.654701 77.715413 -12.263330 1.563750 -3.976833 -4.914877 8.103148 -18.460846 -0.602005 2.781535 42.723222 0.897570 -0.485080 17.221108 -0.622400 -0.000000 -74.420300 7.854888 1.062734 -1.004643 10.988682 0.151022 -37.554239 2.100639 0.351935 11.814502 -2.900738 -12.658424 -3.197798 177.590000 0.000001 -6.990200
-3.916952 17.128424 -1.589160 59.297114 82.549832 79.634050 -12.270789 1.454923 -3.950483 -4.761814 7.764963 -19.366208 -0.489990 2.844275 44.245508 0.960873 -0.736280 18.483363 -0.786701 0.000000 -70.954800 7.858020 1.056586 -1.057042 10.970451 0.087662 -37.111783 2.073992 0.378036 11.705085 -2.954510 -12.807844 -3.557978 177.659900 0.000000 -7.184300
-3.828269 17.143051 -1.515363 61.287958 82.412773 81.700651 -12.263695 1.348258 -3.906905 -4.672140 7.368021 -20.295246 -0.387214 2.898263 45.717665 1.022379 -0.797327 19.431912 -0.866300 -0.000000 -67.261100 7.873527 1.053220 -1.091949 10.904102 0.009365 -36.737365 2.044691 0.400517 11.601302 -2.997465 -12.921314 -3.852623 177.720100 -0.000000 -7.376900
-3.740017 17.156481 -1.442557 63.182598 82.247876 83.695439 -12.246053 1.244780 -3.851942 -4.629692 6.940052 -21.242612 -0.292384 2.946689 47.131958 1.082576 -0.638141 20.062300 -0.839300 0.000000 -63.578200 7.896345 1.051932 -1.110109 10.806451 -0.062691 -36.435369 2.014776 0.418234 11.532151 -3.030894 -12.995276 -4.115684 177.778800 0.000000 -7.599101
-3.652235 17.169125 -1.371359 64.798953 82.061943 85.434394 -12.220091 1.144900 -3.790938 -4.620241 6.504667 -22.200399 -0.204486 2.991600 48.477032 1.143413 -0.242948 20.394580 -0.695700 0.000000 -60.166200 7.922715 1.052359 -1.112549 10.692647 -0.109379 -36.202959 1.985658 0.431330 11.514497 -3.057406 -13.032119 -4.380693 177.843400 -0.000000 -7.872300
-3.565251 17.181377 -1.302118 65.988202 81.859375 86.760889 -12.188202 1.048932 -3.730698 -4.631052 6.084267 -23.151917 -0.123367 3.034952 49.741518 1.207417 0.386187 20.462012 -0.438200 -0.000000 -57.224500 7.949056 1.055033 -1.103625 10.574697 -0.117148 -36.023803 1.958083 0.440505 11.555824 -3.079427 -13.035809 -4.676594 177.920800 -0.000000 -8.207300
-3.479114 17.193425 -1.234906 66.686212 81.646723 87.611362 -12.151701 0.956263 -3.674515 -4.651801 5.693594 -24.098194 -0.049103 3.078180 50.926614 1.275532 1.223943 20.284395 -0.084000 -0.000000 -54.617100 7.972776 1.059271 -1.083742 10.463635 -0.075646 -35.892480 1.932708 0.447391 11.654215 -3.100296 -13.015674 -5.022996 178.014099 0.000001 -8.606500
-3.394350 17.205504 -1.169480 66.838033 81.425511 87.916898 -12.109583 0.867558 -3.628432 -4.674296 5.343393 -25.010975 0.017458 3.121453 52.011510 1.350823 2.242691 19.924616 0.345900 0.000000 -52.599700 7.994585 1.067282 -1.060363 10.363506 0.017350 -35.775099 1.908517 0.453341 11.796146 -3.121724 -12.980458 -5.426104 178.124100 -0.000000 -9.059900
-3.311154 17.217621 -1.105461 66.462842 81.196963 87.692044 -12.060693 0.782973 -3.594517 -4.692722 5.037353 -25.882113 0.075589 3.164769 52.990443 1.433657 3.396329 19.422272 0.823300 -0.000000 -51.063400 8.015699 1.079796 -1.036236 10.277061 0.161165 -35.654127 1.884805 0.459971 11.964334 -3.145253 -12.939731 -5.881027 178.248700 0.000000 -9.552300
-3.229731 17.229648 -1.042357 65.614696 80.959377 86.984552 -12.003234 0.703021 -3.573682 -4.703672 4.773263 -26.700481 0.124687 3.207368 53.854792 1.523730 4.634911 18.823859 1.320301 0.000000 -49.940700 8.038719 1.097889 -1.014725 10.203226 0.350073 -35.510374 1.860495 0.468345 12.139515 -3.171175 -12.900667 -6.372935 178.383200 0.000000 -10.063900
-3.150214 17.241402 -0.979672 64.378738 80.709406 85.875289 -11.935429 0.628055 -3.564949 -4.705211 4.543118 -27.458431 0.164511 3.247870 54.597049 1.619611 5.907220 18.174796 1.811800 0.000000 -49.152000 8.066699 1.122268 -0.998458 10.138868 0.574698 -35.330012 1.834632 0.478917 12.304082 -3.198764 -12.867421 -6.880958 178.522400 0.000000 -10.573800
-3.072680 17.252615 -0.916965 62.861991 80.442082 84.467859 -11.856621 0.558656 -3.565447 -4.698516 4.335531 -28.151772 0.195229 3.284665 55.213458 1.718495 7.163269 17.511559 2.277000 -0.000000 -48.558000 8.102145 1.152929 -0.988910 10.078831 0.822297 -35.106595 1.806762 0.491294 12.446795 -3.225906 -12.837869 -7.383466 178.661100 0.000000 -11.063600
